<svg width="21" height="20" viewBox="0 0 21 20" fill="none" xmlns="http://www.w3.org/2000/svg">
<path fill-rule="evenodd" clip-rule="evenodd" d="M5.98909 0.06C7.05545 0.0109091 7.39545 0 10.1118 0C12.8282 0 13.1682 0.0118182 14.2336 0.06C15.2991 0.108182 16.0264 0.278182 16.6627 0.524545C17.3291 0.776364 17.9336 1.17 18.4336 1.67909C18.9427 2.17818 19.3355 2.78182 19.5864 3.44909C19.8336 4.08545 20.0027 4.81273 20.0518 5.87636C20.1009 6.94455 20.1118 7.28455 20.1118 10C20.1118 12.7164 20.1 13.0564 20.0518 14.1227C20.0036 15.1864 19.8336 15.9136 19.5864 16.55C19.3354 17.2174 18.9421 17.822 18.4336 18.3218C17.9336 18.8309 17.3291 19.2236 16.6627 19.4745C16.0264 19.7218 15.2991 19.8909 14.2355 19.94C13.1682 19.9891 12.8282 20 10.1118 20C7.39545 20 7.05545 19.9882 5.98909 19.94C4.92545 19.8918 4.19818 19.7218 3.56182 19.4745C2.89447 19.2236 2.28983 18.8302 1.79 18.3218C1.28125 17.8224 0.887557 17.2181 0.636362 16.5509C0.389998 15.9145 0.220907 15.1873 0.171816 14.1236C0.122725 13.0555 0.111816 12.7155 0.111816 10C0.111816 7.28364 0.123635 6.94364 0.171816 5.87818C0.219998 4.81273 0.389998 4.08545 0.636362 3.44909C0.887928 2.78189 1.28192 2.17756 1.79091 1.67818C2.29004 1.16955 2.89406 0.775858 3.56091 0.524545C4.19727 0.278182 4.92454 0.109091 5.98818 0.06H5.98909ZM14.1527 1.86C13.0982 1.81182 12.7818 1.80182 10.1118 1.80182C7.44182 1.80182 7.12545 1.81182 6.07091 1.86C5.09545 1.90455 4.56636 2.06727 4.21363 2.20455C3.74727 2.38636 3.41363 2.60182 3.06363 2.95182C2.73186 3.27459 2.47653 3.66753 2.31636 4.10182C2.17909 4.45455 2.01636 4.98364 1.97182 5.95909C1.92363 7.01364 1.91363 7.33 1.91363 10C1.91363 12.67 1.92363 12.9864 1.97182 14.0409C2.01636 15.0164 2.17909 15.5455 2.31636 15.8982C2.47636 16.3318 2.73182 16.7255 3.06363 17.0482C3.38636 17.38 3.78 17.6355 4.21363 17.7955C4.56636 17.9327 5.09545 18.0955 6.07091 18.14C7.12545 18.1882 7.44091 18.1982 10.1118 18.1982C12.7827 18.1982 13.0982 18.1882 14.1527 18.14C15.1282 18.0955 15.6573 17.9327 16.01 17.7955C16.4764 17.6136 16.81 17.3982 17.16 17.0482C17.4918 16.7255 17.7473 16.3318 17.9073 15.8982C18.0445 15.5455 18.2073 15.0164 18.2518 14.0409C18.3 12.9864 18.31 12.67 18.31 10C18.31 7.33 18.3 7.01364 18.2518 5.95909C18.2073 4.98364 18.0445 4.45455 17.9073 4.10182C17.7255 3.63545 17.51 3.30182 17.16 2.95182C16.8372 2.62006 16.4443 2.36474 16.01 2.20455C15.6573 2.06727 15.1282 1.90455 14.1527 1.86ZM8.83454 13.0827C9.54787 13.3797 10.3422 13.4197 11.0818 13.1961C11.8213 12.9725 12.4604 12.499 12.8896 11.8566C13.3189 11.2142 13.5119 10.4426 13.4355 9.67373C13.3591 8.90485 13.0182 8.18634 12.4709 7.64091C12.122 7.29225 11.7002 7.02528 11.2358 6.85922C10.7713 6.69317 10.2758 6.63215 9.78499 6.68056C9.29415 6.72897 8.82014 6.88562 8.39709 7.13921C7.97405 7.3928 7.61249 7.73704 7.33846 8.14714C7.06442 8.55723 6.88472 9.02299 6.81229 9.51087C6.73986 9.99876 6.7765 10.4966 6.91958 10.9687C7.06266 11.4407 7.30862 11.8751 7.63974 12.2407C7.97087 12.6062 8.37893 12.8938 8.83454 13.0827ZM6.47727 6.36545C6.95457 5.88816 7.5212 5.50955 8.14481 5.25124C8.76843 4.99293 9.43682 4.85998 10.1118 4.85998C10.7868 4.85998 11.4552 4.99293 12.0788 5.25124C12.7024 5.50955 13.2691 5.88816 13.7464 6.36545C14.2237 6.84275 14.6023 7.40938 14.8606 8.033C15.1189 8.65662 15.2518 9.325 15.2518 10C15.2518 10.675 15.1189 11.3434 14.8606 11.967C14.6023 12.5906 14.2237 13.1573 13.7464 13.6345C12.7824 14.5985 11.475 15.14 10.1118 15.14C8.7486 15.14 7.44121 14.5985 6.47727 13.6345C5.51333 12.6706 4.97179 11.3632 4.97179 10C4.97179 8.63678 5.51333 7.3294 6.47727 6.36545ZM16.3918 5.62545C16.5101 5.51388 16.6048 5.37971 16.6703 5.23089C16.7358 5.08206 16.7707 4.92161 16.7731 4.75903C16.7755 4.59645 16.7452 4.43504 16.6841 4.28437C16.6229 4.1337 16.5322 3.99683 16.4172 3.88185C16.3023 3.76688 16.1654 3.67614 16.0147 3.61502C15.864 3.55389 15.7026 3.52361 15.5401 3.52598C15.3775 3.52835 15.217 3.56332 15.0682 3.62881C14.9194 3.69431 14.7852 3.789 14.6736 3.90727C14.4566 4.1373 14.3378 4.44284 14.3425 4.75903C14.3471 5.07522 14.4747 5.37716 14.6983 5.60077C14.9219 5.82437 15.2239 5.95203 15.5401 5.95664C15.8563 5.96125 16.1618 5.84245 16.3918 5.62545Z" fill="url(#paint0_linear_782_306)"/>
<defs>
<linearGradient id="paint0_linear_782_306" x1="10.1118" y1="0" x2="10.1118" y2="20" gradientUnits="userSpaceOnUse">
<stop stop-color="#41AAB1"/>
<stop offset="1" stop-color="#C26B91"/>
</linearGradient>
</defs>
</svg>
