<svg width="20" height="20" viewBox="0 0 20 20" fill="none" xmlns="http://www.w3.org/2000/svg">
<path fill-rule="evenodd" clip-rule="evenodd" d="M2.37434e-07 1.67091C2.37434e-07 1.22776 0.169 0.802756 0.469822 0.4894C0.770644 0.176044 1.17865 2.22756e-06 1.60407 2.22756e-06H17.5942C17.805 -0.000356456 18.0138 0.0426049 18.2087 0.126426C18.4036 0.210248 18.5807 0.333284 18.7298 0.48849C18.879 0.643696 18.9973 0.828024 19.078 1.03092C19.1586 1.23382 19.2001 1.4513 19.2 1.67091V18.3273C19.2002 18.5469 19.1589 18.7645 19.0783 18.9675C18.9977 19.1705 18.8796 19.3549 18.7305 19.5103C18.5814 19.6656 18.4044 19.7889 18.2096 19.8729C18.0147 19.9569 17.8059 20.0001 17.5951 20H1.60407C1.39335 20 1.18469 19.9568 0.990019 19.8727C0.795347 19.7887 0.618477 19.6655 0.469514 19.5103C0.32055 19.355 0.202413 19.1707 0.121852 18.9679C0.0412916 18.7651 -0.000114411 18.5477 2.37434e-07 18.3282V1.67091ZM7.59971 7.62546H10.1996V8.98546C10.5748 8.20364 11.5348 7.5 12.9775 7.5C15.7431 7.5 16.3985 9.05727 16.3985 11.9145V17.2073H13.5997V12.5655C13.5997 10.9382 13.2244 10.02 12.2714 10.02C10.9492 10.02 10.3994 11.01 10.3994 12.5655V17.2073H7.59971V7.62546ZM2.79971 17.0827H5.59942V7.5H2.79971V17.0818V17.0827ZM6 4.37455C6.00528 4.62425 5.96262 4.87254 5.87454 5.10483C5.78645 5.33713 5.65471 5.54876 5.48704 5.7273C5.31937 5.90585 5.11915 6.0477 4.89814 6.14455C4.67713 6.2414 4.43977 6.29129 4.2 6.29129C3.96023 6.29129 3.72287 6.2414 3.50186 6.14455C3.28085 6.0477 3.08063 5.90585 2.91296 5.7273C2.74529 5.54876 2.61355 5.33713 2.52546 5.10483C2.43738 4.87254 2.39472 4.62425 2.4 4.37455C2.41036 3.88441 2.60455 3.41799 2.94099 3.07517C3.27743 2.73235 3.72936 2.54038 4.2 2.54038C4.67064 2.54038 5.12257 2.73235 5.45901 3.07517C5.79545 3.41799 5.98964 3.88441 6 4.37455Z" fill="url(#paint0_linear_782_312)"/>
<defs>
<linearGradient id="paint0_linear_782_312" x1="9.6" y1="0" x2="9.6" y2="20" gradientUnits="userSpaceOnUse">
<stop stop-color="#41AAB1"/>
<stop offset="1" stop-color="#C26B91"/>
</linearGradient>
</defs>
</svg>
