<svg width="55" height="48" viewBox="0 0 55 48" fill="none" xmlns="http://www.w3.org/2000/svg">
<path d="M10.9497 40.5239H44.053V47.8802H10.9497V40.5239Z" fill="#F0330A"/>
<path d="M50.8341 12.9262C48.9934 12.9262 47.5008 14.4151 47.5008 16.2505C47.5008 17.1269 47.8464 17.9175 48.4018 18.5107C45.9137 20.7131 42.6059 23.2114 40.7229 22.8666C36.3736 22.0711 31.1909 11.6745 28.8131 6.38011C30.0011 5.8715 30.8344 4.69542 30.8344 3.32431C30.8344 1.48807 29.3418 0 27.501 0C25.6603 0 24.1677 1.48765 24.1677 3.32431C24.1677 4.69332 24.999 5.8678 26.1841 6.37728C23.8044 11.6507 18.6254 21.9873 14.2785 22.7829C12.3988 23.1277 9.09788 20.6696 6.61146 18.498C7.15866 17.9049 7.50061 17.1204 7.50061 16.2517C7.50061 14.4155 6.00802 12.9274 4.16727 12.9274C2.32609 12.927 0.833496 14.4151 0.833496 16.2513C0.833496 18.0876 2.32609 19.5765 4.16684 19.5765C4.32694 19.5765 4.48047 19.5518 4.634 19.5297L10.4411 37.9824H44.5585L50.3626 19.5276C50.5182 19.5497 50.6726 19.5752 50.8335 19.5752C52.6742 19.5752 54.1668 18.0863 54.1668 16.25C54.1664 14.4142 52.6738 12.9253 50.8331 12.9253L50.8341 12.9262Z" fill="#F0BD0A"/>
</svg>
