<svg width="55" height="48" viewBox="0 0 55 48" fill="none" xmlns="http://www.w3.org/2000/svg">
<path d="M10.874 40.5239H43.9774V47.8802H10.874V40.5239Z" fill="#015259"/>
<path d="M50.7584 12.9262C48.9177 12.9262 47.4251 14.4151 47.4251 16.2505C47.4251 17.1269 47.7707 17.9175 48.3262 18.5107C45.838 20.7131 42.5302 23.2114 40.6472 22.8666C36.2979 22.0711 31.1153 11.6745 28.7374 6.38011C29.9254 5.8715 30.7587 4.69542 30.7587 3.32431C30.7587 1.48807 29.2661 0 27.4253 0C25.5846 0 24.092 1.48765 24.092 3.32431C24.092 4.69332 24.9233 5.8678 26.1085 6.37728C23.7287 11.6507 18.5498 21.9873 14.2028 22.7829C12.3231 23.1277 9.0222 20.6696 6.53577 18.498C7.08298 17.9049 7.42493 17.1204 7.42493 16.2517C7.42493 14.4155 5.93234 12.9274 4.09158 12.9274C2.25041 12.927 0.757812 14.4151 0.757812 16.2513C0.757812 18.0876 2.25041 19.5765 4.09116 19.5765C4.25125 19.5765 4.40479 19.5518 4.55832 19.5297L10.3654 37.9824H44.4828L50.2869 19.5276C50.4425 19.5497 50.5969 19.5752 50.7578 19.5752C52.5986 19.5752 54.0911 18.0863 54.0911 16.25C54.0907 14.4142 52.5981 12.9253 50.7574 12.9253L50.7584 12.9262Z" fill="#5FA8AF"/>
</svg>
