<svg width="20" height="14" viewBox="0 0 20 14" fill="none" xmlns="http://www.w3.org/2000/svg">
<path d="M19.5826 2.12717C19.4687 1.71526 19.2455 1.33963 18.9353 1.03786C18.625 0.73609 18.2386 0.518772 17.8147 0.407653C16.2545 8.27166e-08 10 0 10 0C10 0 3.74554 -8.27166e-08 2.18527 0.405485C1.76121 0.516243 1.37461 0.73344 1.0643 1.03526C0.753989 1.33709 0.530891 1.71292 0.417411 2.125C-8.51495e-08 3.64286 0 6.80867 0 6.80867C0 6.80867 -8.51495e-08 9.97449 0.417411 11.4902C0.647321 12.3272 1.32589 12.9864 2.18527 13.2097C3.74554 13.6173 10 13.6173 10 13.6173C10 13.6173 16.2545 13.6173 17.8147 13.2097C18.6763 12.9864 19.3527 12.3272 19.5826 11.4902C20 9.97449 20 6.80867 20 6.80867C20 6.80867 20 3.64286 19.5826 2.12717ZM8.01339 9.71428V3.90306L13.192 6.78699L8.01339 9.71428Z" fill="url(#paint0_linear_782_310)"/>
<defs>
<linearGradient id="paint0_linear_782_310" x1="10" y1="0" x2="10" y2="13.6173" gradientUnits="userSpaceOnUse">
<stop stop-color="#41AAB1"/>
<stop offset="1" stop-color="#C26B91"/>
</linearGradient>
</defs>
</svg>
